# xmcd CD database file
#
# Track frame offsets:
#	150
#	11509
#	21550
#	34385
#	44482
#	56715
#	69620
#	81415
#	92965
#	103215
#	116217
#	128660
#
# Disc length: 1853 seconds
#
# Revision: 1
# Processed by: cddbd v1.5.2PL0 Copyright (c) Steve Scherf et al.
# Submitted via: CDex 1.51
#
DISCID=b2073b0c
DTITLE=John Lee Hooker - Travelin'
DYEAR=1900
DGENRE=Blues
TTITLE0=No Shoes
TTITLE1=I Wanna Walk
TTITLE2=Canal Street Blues
TTITLE3=Run On
TTITLE4=I'm A Stranger
TTITLE5=Whiskey And Wimmen
TTITLE6=Solid Sender
TTITLE7=Sunny Land
TTITLE8=Goin' To California
TTITLE9=I Can't Believe
TTITLE10=I'll Know Tonight
TTITLE11=Dusty Road
EXTD=
EXTT0=
EXTT1=
EXTT2=
EXTT3=
EXTT4=
EXTT5=
EXTT6=
EXTT7=
EXTT8=
EXTT9=
EXTT10=
EXTT11=
PLAYORDER=
